<svg id="visual" viewBox="0 0 900 600" width="900" height="600" xmlns="http://www.w3.org/2000/svg" xmlns:xlink="http://www.w3.org/1999/xlink" version="1.1"><rect x="0" y="0" width="900" height="600" fill="#001220"></rect><path d="M0 150L10 149.2C20 148.3 40 146.7 60 149.8C80 153 100 161 120 155C140 149 160 129 180 132.5C200 136 220 163 240 165.7C260 168.3 280 146.7 300 145.3C320 144 340 163 360 162.2C380 161.3 400 140.7 420 138.2C440 135.7 460 151.3 480 157.7C500 164 520 161 540 151.8C560 142.7 580 127.3 600 122.5C620 117.7 640 123.3 660 133C680 142.7 700 156.3 720 157.3C740 158.3 760 146.7 780 139C800 131.3 820 127.7 840 136.2C860 144.7 880 165.3 890 175.7L900 186L900 0L890 0C880 0 860 0 840 0C820 0 800 0 780 0C760 0 740 0 720 0C700 0 680 0 660 0C640 0 620 0 600 0C580 0 560 0 540 0C520 0 500 0 480 0C460 0 440 0 420 0C400 0 380 0 360 0C340 0 320 0 300 0C280 0 260 0 240 0C220 0 200 0 180 0C160 0 140 0 120 0C100 0 80 0 60 0C40 0 20 0 10 0L0 0Z" fill="#ffb004"></path><path d="M0 151L10 148.7C20 146.3 40 141.7 60 130.5C80 119.3 100 101.7 120 95.5C140 89.3 160 94.7 180 100.2C200 105.7 220 111.3 240 107.8C260 104.3 280 91.7 300 87.7C320 83.7 340 88.3 360 100.2C380 112 400 131 420 139.3C440 147.7 460 145.3 480 136.3C500 127.3 520 111.7 540 106.7C560 101.7 580 107.3 600 116.7C620 126 640 139 660 135.3C680 131.7 700 111.3 720 106C740 100.7 760 110.3 780 115C800 119.7 820 119.3 840 115.8C860 112.3 880 105.7 890 102.3L900 99L900 0L890 0C880 0 860 0 840 0C820 0 800 0 780 0C760 0 740 0 720 0C700 0 680 0 660 0C640 0 620 0 600 0C580 0 560 0 540 0C520 0 500 0 480 0C460 0 440 0 420 0C400 0 380 0 360 0C340 0 320 0 300 0C280 0 260 0 240 0C220 0 200 0 180 0C160 0 140 0 120 0C100 0 80 0 60 0C40 0 20 0 10 0L0 0Z" fill="#ff6a48"></path><path d="M0 95L10 88.7C20 82.3 40 69.7 60 69.3C80 69 100 81 120 89C140 97 160 101 180 95.2C200 89.3 220 73.7 240 74C260 74.3 280 90.7 300 93.3C320 96 340 85 360 81C380 77 400 80 420 86.8C440 93.7 460 104.3 480 106.8C500 109.3 520 103.7 540 103C560 102.3 580 106.7 600 100.3C620 94 640 77 660 75C680 73 700 86 720 90.3C740 94.7 760 90.3 780 91.2C800 92 820 98 840 100C860 102 880 100 890 99L900 98L900 0L890 0C880 0 860 0 840 0C820 0 800 0 780 0C760 0 740 0 720 0C700 0 680 0 660 0C640 0 620 0 600 0C580 0 560 0 540 0C520 0 500 0 480 0C460 0 440 0 420 0C400 0 380 0 360 0C340 0 320 0 300 0C280 0 260 0 240 0C220 0 200 0 180 0C160 0 140 0 120 0C100 0 80 0 60 0C40 0 20 0 10 0L0 0Z" fill="#db3874"></path><path d="M0 58L10 58.3C20 58.7 40 59.3 60 61.8C80 64.3 100 68.7 120 73C140 77.3 160 81.7 180 84C200 86.3 220 86.7 240 80.2C260 73.7 280 60.3 300 55.3C320 50.3 340 53.7 360 55.3C380 57 400 57 420 56.5C440 56 460 55 480 57C500 59 520 64 540 70.3C560 76.7 580 84.3 600 83C620 81.7 640 71.3 660 70.5C680 69.7 700 78.3 720 76.2C740 74 760 61 780 55.5C800 50 820 52 840 53.7C860 55.3 880 56.7 890 57.3L900 58L900 0L890 0C880 0 860 0 840 0C820 0 800 0 780 0C760 0 740 0 720 0C700 0 680 0 660 0C640 0 620 0 600 0C580 0 560 0 540 0C520 0 500 0 480 0C460 0 440 0 420 0C400 0 380 0 360 0C340 0 320 0 300 0C280 0 260 0 240 0C220 0 200 0 180 0C160 0 140 0 120 0C100 0 80 0 60 0C40 0 20 0 10 0L0 0Z" fill="#8c348b"></path><path d="M0 48L10 44.2C20 40.3 40 32.7 60 32.2C80 31.7 100 38.3 120 42C140 45.7 160 46.3 180 42.8C200 39.3 220 31.7 240 33.5C260 35.3 280 46.7 300 48.3C320 50 340 42 360 36.5C380 31 400 28 420 30.7C440 33.3 460 41.7 480 42.7C500 43.7 520 37.3 540 37.2C560 37 580 43 600 47.2C620 51.3 640 53.7 660 52.5C680 51.3 700 46.7 720 41.3C740 36 760 30 780 30.8C800 31.7 820 39.3 840 41.7C860 44 880 41 890 39.5L900 38L900 0L890 0C880 0 860 0 840 0C820 0 800 0 780 0C760 0 740 0 720 0C700 0 680 0 660 0C640 0 620 0 600 0C580 0 560 0 540 0C520 0 500 0 480 0C460 0 440 0 420 0C400 0 380 0 360 0C340 0 320 0 300 0C280 0 260 0 240 0C220 0 200 0 180 0C160 0 140 0 120 0C100 0 80 0 60 0C40 0 20 0 10 0L0 0Z" fill="#0c3581"></path></svg>