<svg id="visual" viewBox="0 0 1900 650" width="1900" height="650" xmlns="http://www.w3.org/2000/svg" xmlns:xlink="http://www.w3.org/1999/xlink" version="1.1"><rect x="0" y="0" width="1900" height="650" fill="#001220"></rect><path d="M0 163L21.2 162C42.3 161 84.7 159 126.8 162.5C169 166 211 175 253.2 168.5C295.3 162 337.7 140 380 143.7C422.3 147.3 464.7 176.7 506.8 179.7C549 182.7 591 159.3 633.2 157.8C675.3 156.3 717.7 176.7 760 175.7C802.3 174.7 844.7 152.3 886.8 149.7C929 147 971 164 1013.2 170.8C1055.3 177.7 1097.7 174.3 1140 164.3C1182.3 154.3 1224.7 137.7 1266.8 132.3C1309 127 1351 133 1393.2 143.5C1435.3 154 1477.7 169 1520 170.2C1562.3 171.3 1604.7 158.7 1646.8 150.3C1689 142 1731 138 1773.2 147.2C1815.3 156.3 1857.7 178.7 1878.8 189.8L1900 201L1900 0L1878.8 0C1857.7 0 1815.3 0 1773.2 0C1731 0 1689 0 1646.8 0C1604.7 0 1562.3 0 1520 0C1477.7 0 1435.3 0 1393.2 0C1351 0 1309 0 1266.8 0C1224.7 0 1182.3 0 1140 0C1097.7 0 1055.3 0 1013.2 0C971 0 929 0 886.8 0C844.7 0 802.3 0 760 0C717.7 0 675.3 0 633.2 0C591 0 549 0 506.8 0C464.7 0 422.3 0 380 0C337.7 0 295.3 0 253.2 0C211 0 169 0 126.8 0C84.7 0 42.3 0 21.2 0L0 0Z" fill="#ffb004"></path><path d="M0 163L21.2 160.7C42.3 158.3 84.7 153.7 126.8 141.7C169 129.7 211 110.3 253.2 103.5C295.3 96.7 337.7 102.3 380 108.3C422.3 114.3 464.7 120.7 506.8 117C549 113.3 591 99.7 633.2 95.3C675.3 91 717.7 96 760 108.8C802.3 121.7 844.7 142.3 886.8 151.3C929 160.3 971 157.7 1013.2 147.8C1055.3 138 1097.7 121 1140 115.5C1182.3 110 1224.7 116 1266.8 126.2C1309 136.3 1351 150.7 1393.2 146.8C1435.3 143 1477.7 121 1520 115.2C1562.3 109.3 1604.7 119.7 1646.8 124.7C1689 129.7 1731 129.3 1773.2 125.5C1815.3 121.7 1857.7 114.3 1878.8 110.7L1900 107L1900 0L1878.8 0C1857.7 0 1815.3 0 1773.2 0C1731 0 1689 0 1646.8 0C1604.7 0 1562.3 0 1520 0C1477.7 0 1435.3 0 1393.2 0C1351 0 1309 0 1266.8 0C1224.7 0 1182.3 0 1140 0C1097.7 0 1055.3 0 1013.2 0C971 0 929 0 886.8 0C844.7 0 802.3 0 760 0C717.7 0 675.3 0 633.2 0C591 0 549 0 506.8 0C464.7 0 422.3 0 380 0C337.7 0 295.3 0 253.2 0C211 0 169 0 126.8 0C84.7 0 42.3 0 21.2 0L0 0Z" fill="#ff6a48"></path><path d="M0 103L21.2 96.2C42.3 89.3 84.7 75.7 126.8 75.3C169 75 211 88 253.2 96.7C295.3 105.3 337.7 109.7 380 103.2C422.3 96.7 464.7 79.3 506.8 79.7C549 80 591 98 633.2 101C675.3 104 717.7 92 760 87.7C802.3 83.3 844.7 86.7 886.8 94.2C929 101.7 971 113.3 1013.2 116C1055.3 118.7 1097.7 112.3 1140 111.5C1182.3 110.7 1224.7 115.3 1266.8 108.7C1309 102 1351 84 1393.2 82C1435.3 80 1477.7 94 1520 98.5C1562.3 103 1604.7 98 1646.8 98.8C1689 99.7 1731 106.3 1773.2 108.7C1815.3 111 1857.7 109 1878.8 108L1900 107L1900 0L1878.8 0C1857.7 0 1815.3 0 1773.2 0C1731 0 1689 0 1646.8 0C1604.7 0 1562.3 0 1520 0C1477.7 0 1435.3 0 1393.2 0C1351 0 1309 0 1266.8 0C1224.7 0 1182.3 0 1140 0C1097.7 0 1055.3 0 1013.2 0C971 0 929 0 886.8 0C844.7 0 802.3 0 760 0C717.7 0 675.3 0 633.2 0C591 0 549 0 506.8 0C464.7 0 422.3 0 380 0C337.7 0 295.3 0 253.2 0C211 0 169 0 126.8 0C84.7 0 42.3 0 21.2 0L0 0Z" fill="#db3874"></path><path d="M0 63L21.2 63.3C42.3 63.7 84.7 64.3 126.8 67C169 69.7 211 74.3 253.2 79C295.3 83.7 337.7 88.3 380 90.8C422.3 93.3 464.7 93.7 506.8 86.8C549 80 591 66 633.2 60.5C675.3 55 717.7 58 760 59.7C802.3 61.3 844.7 61.7 886.8 61.3C929 61 971 60 1013.2 62.2C1055.3 64.3 1097.7 69.7 1140 76.5C1182.3 83.3 1224.7 91.7 1266.8 90.2C1309 88.7 1351 77.3 1393.2 76.5C1435.3 75.7 1477.7 85.3 1520 83C1562.3 80.7 1604.7 66.3 1646.8 60.3C1689 54.3 1731 56.7 1773.2 58.5C1815.3 60.3 1857.7 61.7 1878.8 62.3L1900 63L1900 0L1878.8 0C1857.7 0 1815.3 0 1773.2 0C1731 0 1689 0 1646.8 0C1604.7 0 1562.3 0 1520 0C1477.7 0 1435.3 0 1393.2 0C1351 0 1309 0 1266.8 0C1224.7 0 1182.3 0 1140 0C1097.7 0 1055.3 0 1013.2 0C971 0 929 0 886.8 0C844.7 0 802.3 0 760 0C717.7 0 675.3 0 633.2 0C591 0 549 0 506.8 0C464.7 0 422.3 0 380 0C337.7 0 295.3 0 253.2 0C211 0 169 0 126.8 0C84.7 0 42.3 0 21.2 0L0 0Z" fill="#8c348b"></path><path d="M0 52L21.2 47.8C42.3 43.7 84.7 35.3 126.8 34.7C169 34 211 41 253.2 45C295.3 49 337.7 50 380 46.5C422.3 43 464.7 35 506.8 37C549 39 591 51 633.2 52.7C675.3 54.3 717.7 45.7 760 39.8C802.3 34 844.7 31 886.8 33.8C929 36.7 971 45.3 1013.2 46.3C1055.3 47.3 1097.7 40.7 1140 40.5C1182.3 40.3 1224.7 46.7 1266.8 51.2C1309 55.7 1351 58.3 1393.2 57.2C1435.3 56 1477.7 51 1520 45.2C1562.3 39.3 1604.7 32.7 1646.8 33.5C1689 34.3 1731 42.7 1773.2 45.2C1815.3 47.7 1857.7 44.3 1878.8 42.7L1900 41L1900 0L1878.8 0C1857.7 0 1815.3 0 1773.2 0C1731 0 1689 0 1646.8 0C1604.7 0 1562.3 0 1520 0C1477.7 0 1435.3 0 1393.2 0C1351 0 1309 0 1266.8 0C1224.7 0 1182.3 0 1140 0C1097.7 0 1055.3 0 1013.2 0C971 0 929 0 886.8 0C844.7 0 802.3 0 760 0C717.7 0 675.3 0 633.2 0C591 0 549 0 506.8 0C464.7 0 422.3 0 380 0C337.7 0 295.3 0 253.2 0C211 0 169 0 126.8 0C84.7 0 42.3 0 21.2 0L0 0Z" fill="#0c3581"></path></svg>