<svg id="visual" viewBox="0 0 1900 250" width="1900" height="250" xmlns="http://www.w3.org/2000/svg" xmlns:xlink="http://www.w3.org/1999/xlink" version="1.1"><rect x="0" y="0" width="1900" height="250" fill="#001220"></rect><path d="M0 141L21.2 140.2C42.3 139.3 84.7 137.7 126.8 140.7C169 143.7 211 151.3 253.2 145.7C295.3 140 337.7 121 380 124.2C422.3 127.3 464.7 152.7 506.8 155.2C549 157.7 591 137.3 633.2 136C675.3 134.7 717.7 152.3 760 151.7C802.3 151 844.7 132 886.8 129.7C929 127.3 971 141.7 1013.2 147.5C1055.3 153.3 1097.7 150.7 1140 142.2C1182.3 133.7 1224.7 119.3 1266.8 114.8C1309 110.3 1351 115.7 1393.2 124.7C1435.3 133.7 1477.7 146.3 1520 147.3C1562.3 148.3 1604.7 137.7 1646.8 130.5C1689 123.3 1731 119.7 1773.2 127.5C1815.3 135.3 1857.7 154.7 1878.8 164.3L1900 174L1900 0L1878.8 0C1857.7 0 1815.3 0 1773.2 0C1731 0 1689 0 1646.8 0C1604.7 0 1562.3 0 1520 0C1477.7 0 1435.3 0 1393.2 0C1351 0 1309 0 1266.8 0C1224.7 0 1182.3 0 1140 0C1097.7 0 1055.3 0 1013.2 0C971 0 929 0 886.8 0C844.7 0 802.3 0 760 0C717.7 0 675.3 0 633.2 0C591 0 549 0 506.8 0C464.7 0 422.3 0 380 0C337.7 0 295.3 0 253.2 0C211 0 169 0 126.8 0C84.7 0 42.3 0 21.2 0L0 0Z" fill="#ffb004"></path><path d="M0 141L21.2 139C42.3 137 84.7 133 126.8 122.7C169 112.3 211 95.7 253.2 89.8C295.3 84 337.7 89 380 94.2C422.3 99.3 464.7 104.7 506.8 101.3C549 98 591 86 633.2 82.2C675.3 78.3 717.7 82.7 760 93.8C802.3 105 844.7 123 886.8 130.8C929 138.7 971 136.3 1013.2 127.8C1055.3 119.3 1097.7 104.7 1140 99.8C1182.3 95 1224.7 100 1266.8 108.7C1309 117.3 1351 129.7 1393.2 126.3C1435.3 123 1477.7 104 1520 99C1562.3 94 1604.7 103 1646.8 107.5C1689 112 1731 112 1773.2 108.7C1815.3 105.3 1857.7 98.7 1878.8 95.3L1900 92L1900 0L1878.8 0C1857.7 0 1815.3 0 1773.2 0C1731 0 1689 0 1646.8 0C1604.7 0 1562.3 0 1520 0C1477.7 0 1435.3 0 1393.2 0C1351 0 1309 0 1266.8 0C1224.7 0 1182.3 0 1140 0C1097.7 0 1055.3 0 1013.2 0C971 0 929 0 886.8 0C844.7 0 802.3 0 760 0C717.7 0 675.3 0 633.2 0C591 0 549 0 506.8 0C464.7 0 422.3 0 380 0C337.7 0 295.3 0 253.2 0C211 0 169 0 126.8 0C84.7 0 42.3 0 21.2 0L0 0Z" fill="#ff6a48"></path><path d="M0 89L21.2 83.2C42.3 77.3 84.7 65.7 126.8 65.3C169 65 211 76 253.2 83.5C295.3 91 337.7 95 380 89.5C422.3 84 464.7 69 506.8 69.2C549 69.3 591 84.7 633.2 87.2C675.3 89.7 717.7 79.3 760 75.7C802.3 72 844.7 75 886.8 81.5C929 88 971 98 1013.2 100.3C1055.3 102.7 1097.7 97.3 1140 96.7C1182.3 96 1224.7 100 1266.8 94.2C1309 88.3 1351 72.7 1393.2 70.8C1435.3 69 1477.7 81 1520 85C1562.3 89 1604.7 85 1646.8 85.7C1689 86.3 1731 91.7 1773.2 93.5C1815.3 95.3 1857.7 93.7 1878.8 92.8L1900 92L1900 0L1878.8 0C1857.7 0 1815.3 0 1773.2 0C1731 0 1689 0 1646.8 0C1604.7 0 1562.3 0 1520 0C1477.7 0 1435.3 0 1393.2 0C1351 0 1309 0 1266.8 0C1224.7 0 1182.3 0 1140 0C1097.7 0 1055.3 0 1013.2 0C971 0 929 0 886.8 0C844.7 0 802.3 0 760 0C717.7 0 675.3 0 633.2 0C591 0 549 0 506.8 0C464.7 0 422.3 0 380 0C337.7 0 295.3 0 253.2 0C211 0 169 0 126.8 0C84.7 0 42.3 0 21.2 0L0 0Z" fill="#db3874"></path><path d="M0 55L21.2 55.2C42.3 55.3 84.7 55.7 126.8 57.8C169 60 211 64 253.2 68.2C295.3 72.3 337.7 76.7 380 78.8C422.3 81 464.7 81 506.8 74.8C549 68.7 591 56.3 633.2 51.7C675.3 47 717.7 50 760 51.7C802.3 53.3 844.7 53.7 886.8 53.3C929 53 971 52 1013.2 53.8C1055.3 55.7 1097.7 60.3 1140 66.2C1182.3 72 1224.7 79 1266.8 77.7C1309 76.3 1351 66.7 1393.2 66C1435.3 65.3 1477.7 73.7 1520 71.7C1562.3 69.7 1604.7 57.3 1646.8 52.2C1689 47 1731 49 1773.2 50.5C1815.3 52 1857.7 53 1878.8 53.5L1900 54L1900 0L1878.8 0C1857.7 0 1815.3 0 1773.2 0C1731 0 1689 0 1646.8 0C1604.7 0 1562.3 0 1520 0C1477.7 0 1435.3 0 1393.2 0C1351 0 1309 0 1266.8 0C1224.7 0 1182.3 0 1140 0C1097.7 0 1055.3 0 1013.2 0C971 0 929 0 886.8 0C844.7 0 802.3 0 760 0C717.7 0 675.3 0 633.2 0C591 0 549 0 506.8 0C464.7 0 422.3 0 380 0C337.7 0 295.3 0 253.2 0C211 0 169 0 126.8 0C84.7 0 42.3 0 21.2 0L0 0Z" fill="#8c348b"></path><path d="M0 45L21.2 41.3C42.3 37.7 84.7 30.3 126.8 29.8C169 29.3 211 35.7 253.2 39.2C295.3 42.7 337.7 43.3 380 40.2C422.3 37 464.7 30 506.8 31.7C549 33.3 591 43.7 633.2 45.2C675.3 46.7 717.7 39.3 760 34.3C802.3 29.3 844.7 26.7 886.8 29.2C929 31.7 971 39.3 1013.2 40.2C1055.3 41 1097.7 35 1140 34.8C1182.3 34.7 1224.7 40.3 1266.8 44.3C1309 48.3 1351 50.7 1393.2 49.7C1435.3 48.7 1477.7 44.3 1520 39.3C1562.3 34.3 1604.7 28.7 1646.8 29.3C1689 30 1731 37 1773.2 39C1815.3 41 1857.7 38 1878.8 36.5L1900 35L1900 0L1878.8 0C1857.7 0 1815.3 0 1773.2 0C1731 0 1689 0 1646.8 0C1604.7 0 1562.3 0 1520 0C1477.7 0 1435.3 0 1393.2 0C1351 0 1309 0 1266.8 0C1224.7 0 1182.3 0 1140 0C1097.7 0 1055.3 0 1013.2 0C971 0 929 0 886.8 0C844.7 0 802.3 0 760 0C717.7 0 675.3 0 633.2 0C591 0 549 0 506.8 0C464.7 0 422.3 0 380 0C337.7 0 295.3 0 253.2 0C211 0 169 0 126.8 0C84.7 0 42.3 0 21.2 0L0 0Z" fill="#0c3581"></path></svg>